<?xml version="1.0" standalone="no"?><svg xmlns="http://www.w3.org/2000/svg" viewBox="0 0 1440 320"><path fill="#0099ff" fill-opacity="1" d="M0,128L26.7,122.7C53.3,117,107,107,160,128C213.3,149,267,203,320,213.3C373.3,224,427,192,480,197.3C533.3,203,587,245,640,256C693.3,267,747,245,800,229.3C853.3,213,907,203,960,176C1013.3,149,1067,107,1120,117.3C1173.3,128,1227,192,1280,213.3C1333.3,235,1387,213,1413,202.7L1440,192L1440,320L1413.3,320C1386.7,320,1333,320,1280,320C1226.7,320,1173,320,1120,320C1066.7,320,1013,320,960,320C906.7,320,853,320,800,320C746.7,320,693,320,640,320C586.7,320,533,320,480,320C426.7,320,373,320,320,320C266.7,320,213,320,160,320C106.7,320,53,320,27,320L0,320Z"></path></svg>